<svg width="460" height="93" viewBox="0 0 460 93" fill="none" xmlns="http://www.w3.org/2000/svg">
<g clip-path="url(#clip0_2002_588)">
<path d="M61.0922 41.0438C61.0922 56.9383 49.4223 68.3154 32.9757 68.3154H10.9326V13.8643H32.9757C49.4641 13.8643 61.0922 25.1326 61.0922 41.0522V41.0438ZM45.708 41.0438C45.708 32.9627 40.3374 27.6005 32.2647 27.6005H25.9989V54.5792H32.2647C40.329 54.5792 45.708 49.0747 45.708 41.0438Z" fill="white"/>
<path d="M110.549 46.9164C110.549 48.1796 110.44 49.4512 110.248 50.7478H79.0531C79.9984 55.5664 83.0602 58.0593 87.6277 58.0593C91.0074 58.0593 93.835 56.5786 95.2236 54.1191H109.621C106.668 63.706 98.1683 69.6957 87.6277 69.6957C74.519 69.6957 64.8066 60.1172 64.8066 47.2762C64.8066 34.4351 74.4437 24.9235 87.6277 24.9235C100.812 24.9235 110.549 34.5857 110.549 46.9081V46.9164ZM79.3124 42.7337H96.2944C95.0229 38.5342 91.9945 36.2671 87.6277 36.2671C83.261 36.2671 80.4752 38.5593 79.3041 42.7337H79.3124Z" fill="white"/>
<path d="M116.279 11.1372H130.752V68.3238H116.279V11.1372Z" fill="white"/>
<path d="M138.766 26.3122H153.238V68.3238H138.766V26.3122ZM138.875 8.76971H153.121V21.0503H138.875V8.76971Z" fill="white"/>
<path d="M204.669 26.3122V63.6558C204.669 76.8566 196.028 85.038 182.149 85.038C170.229 85.038 161.88 79.0232 159.947 69.0683H173.909C174.913 71.8791 178.494 73.3933 182.016 73.3933C186.868 73.3933 190.766 70.3148 190.766 65.3122V64.0574C187.604 66.0651 183.856 67.2111 179.799 67.2111C167.752 67.2111 158.801 58.2517 158.801 46.0966C158.801 33.9415 167.752 24.9653 179.799 24.9653C184.885 24.9653 189.486 26.789 193.05 29.8341L194.882 26.3122H204.669ZM182.2 55.2987C187.395 55.2987 191.134 51.4505 191.134 46.0966C191.134 40.7427 187.403 36.9364 182.2 36.9364C176.996 36.9364 173.232 40.7845 173.232 46.0966C173.232 51.4087 176.963 55.2987 182.2 55.2987Z" fill="white"/>
<path d="M254.36 43.0265V68.3238H239.888V44.708C239.888 39.8643 238.182 37.3881 234.409 37.3881C230.034 37.3881 227.298 40.4917 227.298 45.8875V68.3238H212.826V11.1372H227.298V29.0728C230.393 26.5799 234.325 25.0657 238.516 25.0657C248.162 25.0657 254.36 32.1346 254.36 43.0181V43.0265Z" fill="white"/>
<path d="M289.914 55.65V68.3238H279.959C270.665 68.3238 265.018 62.6436 265.018 53.3077V37.455H257.331V34.0754L276.153 14.0316H279.123V26.3122H289.68V37.455H279.491V50.8231C279.491 53.8347 281.306 55.65 284.36 55.65H289.914Z" fill="white"/>
<path d="M343.88 13.8643V68.3238H328.747V47.4183H312.4V68.3238H297.267V13.8643H312.4V33.5149H328.747V13.8643H343.88Z" fill="white"/>
<path d="M352.354 50.2877V26.3122H366.826V49.6603C366.826 54.094 369.21 56.7041 373.075 56.7041C376.94 56.7041 379.283 54.0522 379.283 49.6603V26.3122H393.755V50.2877C393.755 62.0412 385.49 69.7041 373.075 69.7041C360.661 69.7041 352.354 62.0496 352.354 50.2877Z" fill="white"/>
<path d="M415.706 8.71115H412.737L401.418 20.7658V68.3238H412.126L413.489 65.2034C416.903 68.0561 421.261 69.6957 426.163 69.6957C439.096 69.6957 448.24 60.4016 448.24 47.3431C448.24 34.2845 439.105 24.9904 426.163 24.9904C422.282 24.9904 418.735 26.0278 415.723 27.8849M424.222 56.8881C418.802 56.8881 414.82 52.789 414.82 47.3514C414.82 41.9139 418.802 37.7729 424.222 37.7729C429.643 37.7729 433.625 41.872 433.625 47.3514C433.625 52.8308 429.61 56.8881 424.222 56.8881Z" fill="white"/>
</g>
<defs>
<clipPath id="clip0_2002_588">
<rect width="437.299" height="76.3269" fill="white" transform="translate(10.9326 8.71115)"/>
</clipPath>
</defs>
</svg>
